<svg width="102" height="100" viewBox="0 0 102 100" fill="none" xmlns="http://www.w3.org/2000/svg">
<circle cx="50" cy="50" r="50" fill="#244EE3"/>
<path d="M19.5755 51.3237C19.3494 51.4042 19.1469 51.402 18.9681 51.317C18.7926 51.2415 18.6697 51.1048 18.5993 50.9069C18.5423 50.7468 18.5135 50.5765 18.5131 50.3963L18.7958 30.7441L20.4068 30.1708L33.0265 45.2315C33.1494 45.3682 33.2394 45.5166 33.2964 45.6768C33.3668 45.8746 33.3531 46.06 33.2554 46.2327C33.1704 46.4116 33.0149 46.5412 32.7888 46.6217C32.4402 46.7457 32.1087 46.6195 31.7943 46.2432L27.8414 41.4882L20.1678 44.219L20.1073 50.4021C20.0731 50.9025 19.8958 51.2098 19.5755 51.3237ZM20.2192 42.5289L26.734 40.2106L20.3475 32.6438L20.2192 42.5289ZM37.1068 44.7985C36.6263 44.9695 36.2704 44.7299 36.039 44.0799L30.1753 27.6021C29.9372 26.9332 30.0679 26.5099 30.5672 26.3322C31.0571 26.1579 31.4227 26.4099 31.6641 27.0882L36.8088 41.5451L41.5268 23.0372C41.6443 22.592 41.868 22.3107 42.1977 22.1934C42.6499 22.0325 42.9951 22.2865 43.2331 22.9554L49.0969 39.4331C49.3282 40.0832 49.1989 40.4954 48.709 40.6697C48.2097 40.8474 47.846 40.6159 47.6181 39.9753L42.4181 25.3629L37.6503 44.223C37.6091 44.3756 37.545 44.4939 37.4581 44.5779C37.384 44.668 37.2669 44.7415 37.1068 44.7985ZM34.414 24.1672C33.4436 24.5126 32.6845 24.512 32.1367 24.1656C31.5855 23.8098 31.0903 23.0149 30.6511 21.7807L30.3745 21.0034L31.8583 20.4754L32.2959 21.7049C32.487 22.2419 32.7008 22.5744 32.9375 22.7025C33.1835 22.8272 33.575 22.794 34.1121 22.6029L36.995 21.577C37.5225 21.3893 37.8329 21.1727 37.926 20.9273C38.0285 20.6785 37.9842 20.2856 37.7931 19.7486L37.3556 18.5191L38.8395 17.9911L39.1161 18.7683C39.5586 20.0119 39.6817 20.9393 39.4852 21.5506C39.2982 22.1585 38.7101 22.6384 37.7208 22.9905L34.414 24.1672ZM59.9286 36.4542C58.4778 36.9705 57.2434 37.2452 56.2256 37.2784C55.2079 37.3115 54.3485 37.0442 53.6475 36.4763C52.9526 35.8957 52.3688 34.9412 51.8961 33.6128L49.0648 25.6565C48.5954 24.3376 48.4437 23.2399 48.6095 22.3636C48.7813 21.4745 49.2628 20.7247 50.0539 20.1142C50.8544 19.5002 51.9613 18.9418 53.3744 18.4389L57.4868 16.9755C58.2688 16.6972 58.9126 16.6273 59.4183 16.7658C59.9206 16.8949 60.3276 17.1587 60.6393 17.5573C60.9476 17.9464 61.1923 18.3954 61.3733 18.9041C61.665 19.7238 61.5612 20.2224 61.0619 20.4001C60.8075 20.4906 60.5872 20.4682 60.4011 20.3328C60.2209 20.1846 60.0705 19.9409 59.9498 19.6017C59.7393 19.0398 59.4851 18.6686 59.1873 18.4879C58.8862 18.2979 58.4294 18.3118 57.817 18.5298L53.9025 19.9228C52.7343 20.3385 51.8395 20.7472 51.2181 21.1487C50.5968 21.5503 50.237 22.0604 50.1388 22.6792C50.0466 23.2851 50.1849 24.1063 50.5537 25.1426L53.3749 33.0706C53.7337 34.0787 54.1418 34.7932 54.5995 35.2141C55.0631 35.6223 55.6707 35.7935 56.4222 35.7278C57.1736 35.662 58.1664 35.4096 59.4006 34.9704L63.1879 33.6226C63.8003 33.4047 64.1649 33.1316 64.2816 32.8035C64.395 32.466 64.3542 32.0082 64.1591 31.4301C64.0378 31.0593 64.0193 30.7687 64.1036 30.5583C64.1845 30.3384 64.324 30.1933 64.5218 30.1228C64.7479 30.0424 64.9571 30.0635 65.1493 30.1861C65.351 30.3054 65.5122 30.5346 65.6329 30.8738C65.8474 31.4768 65.9649 32.0453 65.9851 32.5794C66.002 33.1041 65.8565 33.5752 65.5486 33.9926C65.2407 34.4099 64.6958 34.7578 63.9138 35.036L59.9286 36.4542Z" fill="white"/>
<path d="M12.0327 65.9569L21.9768 62.4481C22.6464 62.2119 23.0676 62.3389 23.2407 62.8293C23.417 63.3291 23.1704 63.6971 22.5009 63.9334L14.042 66.9181L15.2249 70.2705L19.5109 68.7582C20.6897 68.3423 21.8446 68.2794 22.9756 68.5696C24.1127 68.8471 25.125 69.4018 26.0124 70.234C26.8999 71.0661 27.5632 72.1045 28.0024 73.3493C28.4383 74.5847 28.5719 75.8048 28.4031 77.0096C28.2405 78.2016 27.8036 79.2624 27.0924 80.192C26.3779 81.1122 25.4312 81.7803 24.2524 82.1962L19.1601 83.993C18.7075 84.1527 18.363 83.8978 18.1268 83.2283L12.0327 65.9569ZM20.035 70.2434L15.7489 71.7557L19.4423 82.2232L23.7284 80.7109C24.6903 80.3716 25.4322 79.8447 25.9542 79.1302C26.4763 78.4158 26.7814 77.5977 26.8697 76.6758C26.9674 75.7505 26.8466 74.807 26.5072 73.8451C26.1678 72.8832 25.6697 72.0728 25.013 71.4137C24.3657 70.7514 23.6147 70.3059 22.7599 70.0773C21.9052 69.8487 20.9968 69.904 20.035 70.2434ZM39.9207 76.445C41.373 75.9326 42.5066 75.3736 43.3215 74.7679C44.133 74.1528 44.6276 73.4057 44.8052 72.5265C44.9889 71.6346 44.8478 70.5285 44.382 69.2082L41.557 61.202C41.0912 59.8818 40.5086 58.9368 39.8091 58.3671C39.1158 57.7846 38.2619 57.5133 37.2473 57.5531C36.2294 57.5835 34.9944 57.8549 33.5421 58.3674L29.5532 59.7749C28.7799 60.0477 28.234 60.3941 27.9156 60.8139C27.6066 61.2305 27.4532 61.6823 27.4554 62.1693C27.4575 62.6563 27.5418 63.1356 27.7082 63.6071C28.0243 64.503 28.4322 64.8627 28.932 64.6864C29.2526 64.5733 29.4121 64.3791 29.4105 64.104C29.4055 63.8194 29.3648 63.5687 29.2883 63.3518C29.1973 63.034 29.1369 62.7425 29.1069 62.4773C29.077 62.2122 29.1425 61.977 29.3034 61.7718C29.4704 61.5538 29.7943 61.3599 30.2753 61.1902L34.0662 59.8526C35.0092 59.5199 35.7706 59.2884 36.3502 59.1581C36.9299 59.0277 37.4674 59.0184 37.9627 59.1299C38.417 59.2453 38.8056 59.49 39.1284 59.8639C39.4479 60.2283 39.7623 60.8491 40.0718 61.7261L41.07 64.5551L33.8276 67.1106C33.1581 67.3468 32.9081 67.7054 33.0778 68.1864C33.2575 68.6956 33.6821 68.8321 34.3517 68.5958L41.594 66.0404L42.8867 69.704C43.1496 70.449 43.2904 71.0886 43.3093 71.6228C43.3342 72.1442 43.1921 72.6132 42.8831 73.0297C42.568 73.459 42.1015 73.8198 41.4835 74.1121C40.875 74.4011 40.1794 74.6836 39.3967 74.9598L35.6057 76.2974C35.1248 76.4671 34.7509 76.5195 34.4841 76.4546C34.2234 76.3769 34.0215 76.2254 33.8784 76.0002C33.732 75.7656 33.5961 75.5007 33.4708 75.2056C33.3948 75.0203 33.3066 74.8605 33.2062 74.7263C33.1119 74.5793 32.9916 74.4786 32.8452 74.4242C32.7081 74.3665 32.5406 74.3726 32.3426 74.4425C32.0691 74.539 31.9171 74.7092 31.8866 74.9533C31.8527 75.188 31.909 75.5127 32.0554 75.9277C32.2484 76.4746 32.5032 76.9414 32.8199 77.3281C33.1461 77.7114 33.5632 77.9619 34.0713 78.0795C34.576 78.1877 35.1962 78.1121 35.9318 77.8525L39.9207 76.445ZM51.2916 72.6556C50.8106 72.8253 50.4554 72.5848 50.2258 71.9341L44.4062 55.4407C44.1699 54.7712 44.3017 54.3482 44.8015 54.1719C45.2919 53.9988 45.6569 54.2518 45.8964 54.9308L51.0023 69.4014L55.7699 50.9062C55.8886 50.4613 56.113 50.1807 56.4431 50.0642C56.8957 49.9045 57.2402 50.1594 57.4764 50.8289L63.296 67.3223C63.5256 67.973 63.3952 68.3849 62.9049 68.5579C62.4051 68.7343 62.042 68.5018 61.8158 67.8605L56.655 53.2343L51.8366 72.0815C51.795 72.2341 51.7307 72.3522 51.6436 72.436C51.5692 72.5258 51.4519 72.599 51.2916 72.6556ZM48.6541 52.0172C47.6828 52.3599 46.9237 52.3573 46.3768 52.0095C45.8265 51.6522 45.3335 50.8559 44.8976 49.6206L44.6231 48.8426L46.1083 48.3185L46.5426 49.5491C46.7322 50.0867 46.9452 50.4198 47.1815 50.5485C47.4272 50.6739 47.8188 50.6417 48.3564 50.4521L51.242 49.4339C51.7701 49.2476 52.081 49.0318 52.1748 48.7866C52.278 48.5381 52.2347 48.1451 52.0451 47.6076L51.6109 46.377L53.0961 45.8529L53.3706 46.6309C53.8098 47.8757 53.9304 48.8034 53.7323 49.4141C53.5437 50.0215 52.9543 50.4999 51.9641 50.8493L48.6541 52.0172ZM61.8727 48.3711L71.8168 44.8623C72.4864 44.6261 72.9077 44.7532 73.0807 45.2435C73.257 45.7433 73.0104 46.1114 72.3409 46.3476L63.882 49.3323L65.0649 52.6847L69.3509 51.1724C70.5297 50.7565 71.6846 50.6936 72.8156 50.9838C73.9527 51.2613 74.965 51.8161 75.8524 52.6482C76.7399 53.4803 77.4032 54.5188 77.8424 55.7635C78.2783 56.9989 78.4119 58.219 78.2432 59.4238C78.0805 60.6158 77.6436 61.6766 76.9324 62.6063C76.2179 63.5264 75.2712 64.1945 74.0925 64.6104L69.0002 66.4072C68.5475 66.5669 68.2031 66.312 67.9668 65.6425L61.8727 48.3711ZM69.875 52.6577L65.589 54.17L69.2824 64.6375L73.5684 63.1252C74.5303 62.7858 75.2722 62.2589 75.7943 61.5445C76.3163 60.8301 76.6215 60.0119 76.7097 59.09C76.8074 58.1648 76.6866 57.2212 76.3472 56.2593C76.0078 55.2974 75.5098 54.487 74.853 53.8279C74.2058 53.1656 73.4547 52.7201 72.6 52.4915C71.7452 52.2629 70.8369 52.3183 69.875 52.6577ZM84.5827 60.909C84.1018 61.0787 83.7465 60.8382 83.5169 60.1875L77.6973 43.6941C77.4611 43.0246 77.5929 42.6016 78.0927 42.4253C78.583 42.2522 78.948 42.5052 79.1876 43.1842L84.2935 57.6548L89.061 39.1596C89.1798 38.7147 89.4042 38.4341 89.7342 38.3176C90.1869 38.1579 90.5313 38.4128 90.7676 39.0823L96.5872 55.5757C96.8168 56.2264 96.6864 56.6383 96.196 56.8113C95.6962 56.9877 95.3332 56.7552 95.1069 56.1139L89.9461 41.4877L85.1278 60.3349C85.0862 60.4875 85.0218 60.6056 84.9347 60.6894C84.8604 60.7792 84.743 60.8524 84.5827 60.909Z" fill="white"/>
</svg>
